<svg xmlns="http://www.w3.org/2000/svg" xmlns:xlink="http://www.w3.org/1999/xlink" width="439.5" height="511.2" data-name="Layer 1"><defs><linearGradient id="a" x1="403.23" x2="403.23" y1="511.79" y2="1.31" gradientUnits="userSpaceOnUse"><stop offset="0" stop-color="#ee2a7b"/><stop offset="1" stop-color="#00aeef"/></linearGradient><linearGradient xlink:href="#a" id="b" x1="106.81" x2="106.81" y1="512" y2="2.04"/><linearGradient xlink:href="#a" id="c" x1="253.24" x2="253.24" y1="511.39" y2=".8"/></defs><path d="M376 510.11c3.36-17.64 6.72-35.49 10.08-53.13 2.52-12.6 5-25.41 7.56-38 3.36-16.79-1.26-31.07-13.65-43-10.92-10.5-21.84-20.79-32.76-31.08-14.28-13.44-18.69-29.19-14.91-48.51Q359 162.17 384.77 27.77c3.57-18.69 12.39-26.46 31.71-26.46h59c-3.57 18.69-6.72 35.91-10.08 52.92q-29 148-58.16 296.29c-3.36 16.8 1.05 31.29 13.44 43.05 11.12 10.71 22.25 21.21 33.38 31.71 14.07 13.22 18.69 29 14.28 47.66-.21 1.05-.63 2.1-.84 3.15-7.14 33.6-9.66 35.7-44.72 35.7-14.28 0-28.77-.21-43-.21-.89-.21-1.73-.84-3.78-1.47Z" style="fill:url(#a)" transform="translate(-35.98 -.8)"/><path d="M135.51 2.36c-6.93 34.86-12.6 68.67-20.16 102.05-5 22.26-2.31 40.32 16.8 55 11.34 8.61 20.58 19.95 31.5 29.4 12.39 10.92 16 24.15 13 39.69q-14.49 74.66-29.4 149.3c-6.93 35.28-14.07 70.55-20.58 106-3.78 20.79-12 28.14-33.39 28.14H47.11c-3.36 0-6.72-.42-11.13-.84 4.62-24.15 9-47 13.44-69.93q25.83-131.34 51.65-262.48c3.15-16.38-.42-30-13.43-41.58-13.44-11.11-25.2-23.67-37.8-35.22-10.29-9.23-14.28-20.57-12.18-33.8 2.52-15.54 5.46-30.87 8.82-46.41C48.58 11.6 54.88 3.2 65 2.57c22.85-1.05 45.94-.21 70.51-.21Z" style="fill:url(#b)" transform="translate(-35.98 -.8)"/><path d="m310.85 308.94-.63-.63c-.21-.21-.21-.21-.42-.21-8.4-8.82-17.22-17.22-26.25-25.2-.21-.21-.42-.42-.63-.42-1.26-1.05-2.73-2.31-4.2-3.36a49.38 49.38 0 0 1-10.49-10.5 41.36 41.36 0 0 1-8-18.9 68.26 68.26 0 0 1 .21-18.47 17.72 17.72 0 0 0 1.26-5c.84-4.83 1.89-9.66 2.72-14.7v-.21c6.3-29.19 11.55-59 17.43-89.46h-.21c3.57-18.06 6.93-36.11 10.5-54.17 4.2-21.42 8.4-43 12.6-65.73-4-.42-6.93-1-10.08-1-16.38 0-32.75-.21-49.34 0-18.69.21-27.3 7.56-31.08 25.83-8.4 42.42-16.59 85-25 127.46-2.94 14.28-4.83 24.57-5.46 33v.21c-2.1 13.23 1.89 24.57 12.18 34 12.81 11.55 24.57 23.94 37.38 35.27l.42.42a13.59 13.59 0 0 0 1.89 1.68 41 41 0 0 1 6.72 8.19c5.67 9 6.72 19.53 4.62 31.08l-41.55 211.57c2.1.84 3.36 1.47 4.62 1.47 19.95 0 39.9.63 59.84-.21 14.28-.42 22.05-8.61 25.2-23.73 9-46.2 17.85-92.6 26.88-139 3.57-14.92-.84-28.15-11.13-39.28Z" style="fill:url(#c)" transform="translate(-35.98 -.8)"/></svg>